name Run_50002_IK.mot
datacolumns 164
datarows 4
range 1 1.03
endheader

time	         pelvis_tilt	         pelvis_list	     pelvis_rotation	           pelvis_tx	           pelvis_ty	           pelvis_tz	       hip_flexion_r	     hip_adduction_r	      hip_rotation_r	        knee_angle_r	       ankle_angle_r	       hip_flexion_l	     hip_adduction_l	      hip_rotation_l	        knee_angle_l	       ankle_angle_l	    lumbar_extension	      lumbar_bending	     lumbar_rotation	          arm_flex_r	           arm_add_r	           arm_rot_r	        elbow_flex_r	           pro_sup_r	          arm_flex_l	           arm_add_l	           arm_rot_l	        elbow_flex_l	           pro_sup_l	    subtalar_angle_r	         mtp_angle_r	    subtalar_angle_l	         mtp_angle_l	        wrist_flex_r	         wrist_dev_r	        wrist_flex_l	         wrist_dev_l	             LASI_tx	             LASI_ty	             LASI_tz	             RASI_tx	             RASI_ty	             RASI_tz	             LPSI_tx	             LPSI_ty	             LPSI_tz	             RPSI_tx	             RPSI_ty	             RPSI_tz	             RTH1_tx	             RTH1_ty	             RTH1_tz	             RTH2_tx	             RTH2_ty	             RTH2_tz	             RTH3_tx	             RTH3_ty	             RTH3_tz	             LTH1_tx	             LTH1_ty	             LTH1_tz	             LTH2_tx	             LTH2_ty	             LTH2_tz	             LTH3_tx	             LTH3_ty	             LTH3_tz	             RTB1_tx	             RTB1_ty	             RTB1_tz	             RTB2_tx	             RTB2_ty	             RTB2_tz	             RTB3_tx	             RTB3_ty	             RTB3_tz	             LTB1_tx	             LTB1_ty	             LTB1_tz	             LTB2_tx	             LTB2_ty	             LTB2_tz	             LTB3_tx	             LTB3_ty	             LTB3_tz	             RCAL_tx	             RCAL_ty	             RCAL_tz	             RTOE_tx	             RTOE_ty	             RTOE_tz	             RMT5_tx	             RMT5_ty	             RMT5_tz	             LCAL_tx	             LCAL_ty	             LCAL_tz	             LTOE_tx	             LTOE_ty	             LTOE_tz	             LMT5_tx	             LMT5_ty	             LMT5_tz	             LACR_tx	             LACR_ty	             LACR_tz	             RACR_tx	             RACR_ty	             RACR_tz	             CLAV_tx	             CLAV_ty	             CLAV_tz	               C7_tx	               C7_ty	               C7_tz	             RUA1_tx	             RUA1_ty	             RUA1_tz	             RUA2_tx	             RUA2_ty	             RUA2_tz	             RUA3_tx	             RUA3_ty	             RUA3_tz	             RLEL_tx	             RLEL_ty	             RLEL_tz	             RMEL_tx	             RMEL_ty	             RMEL_tz	             LUA1_tx	             LUA1_ty	             LUA1_tz	             LUA2_tx	             LUA2_ty	             LUA2_tz	             LUA3_tx	             LUA3_ty	             LUA3_tz	             LLEL_tx	             LLEL_ty	             LLEL_tz	             LMEL_tx	             LMEL_ty	             LMEL_tz	      RFAsuperior_tx	      RFAsuperior_ty	      RFAsuperior_tz	        RFAradius_tx	        RFAradius_ty	        RFAradius_tz	          RFAulna_tx	          RFAulna_ty	          RFAulna_tz	      LFAsuperior_tx	      LFAsuperior_ty	      LFAsuperior_tz	        LFAradius_tx	        LFAradius_ty	        LFAradius_tz	          LFAulna_tx	          LFAulna_ty	          LFAulna_tz	
1	        -15.71525932	          3.25279238	          2.34033323	          0.97858778	          0.96016878	         -0.35668525	         55.21778022	         -3.02079546	          4.31433850	       -114.23045600	          6.76046223	         11.04960148	         11.02730904	          0.44629020	        -34.38649784	         18.53856454	          4.59729594	         -4.35691604	         -7.38570034	        -40.08059748	        -23.38330564	        -11.85436600	         93.63636376	        106.22896799	        -24.81715963	        -11.78847136	        -14.67119203	        117.35164837	        104.29095707	          0.00000000	          0.00000000	          0.00000000	          0.00000000	          0.00000000	          0.00000000	          0.00000000	          0.00000000	          0.99466986	          1.00021052	         -0.48189731	          0.99949155	          0.99595364	         -0.22975151	          0.84121318	          1.07201148	         -0.41048880	          0.84026059	          1.06307486	         -0.29677498	          0.94298556	          0.89092597	         -0.17971155	          0.97356534	          0.74915058	         -0.20222657	          1.10450582	          0.64939009	         -0.20125799	          0.92257837	          0.87288028	         -0.52858528	          0.82660979	          0.72985372	         -0.48090324	          0.85988475	          0.59016354	         -0.46759619	          1.06470130	          0.46795909	         -0.26711690	          0.99739600	          0.52707788	         -0.19253526	          0.87836059	          0.43849897	         -0.26413615	          0.83647741	          0.36552692	         -0.38222549	          0.70329016	          0.32201336	         -0.42653780	          0.68279691	          0.20986766	         -0.35701570	          0.70967714	          0.50853318	         -0.24956501	          0.78455384	          0.27805354	         -0.27362624	          0.75173961	          0.31353753	         -0.17736320	          0.49397728	          0.16222961	         -0.32192140	          0.71004602	          0.06449938	         -0.31977169	          0.64333665	          0.04085466	         -0.40945028	          0.98290910	          1.48837840	         -0.52263132	          0.98854710	          1.48227523	         -0.19524989	          1.04705135	          1.44687958	         -0.32349515	          0.92300982	          1.51604346	         -0.36447309	          0.85763558	          1.41686770	         -0.13899689	          0.88243938	          1.35860319	         -0.09307490	          0.79129576	          1.31338311	         -0.05475008	          0.74119209	          1.27241266	         -0.02450831	          0.73852861	          1.23464706	         -0.10609184	          0.89081662	          1.38439365	         -0.57858798	          0.92303863	          1.30657095	         -0.59714401	          0.85386774	          1.23741022	         -0.61963428	          0.84009255	          1.17286876	         -0.63904820	          0.82266221	          1.15229005	         -0.54878369	          0.80278150	          1.18041506	         -0.00768992	          0.92892430	          1.06811993	         -0.07539720	          0.88467792	          1.04114638	         -0.03132918	          0.91311943	          1.12987011	         -0.63435263	          1.08106036	          1.15216106	         -0.54627916	          1.08131101	          1.08967485	         -0.58170766	
1.01	        -15.39109820	          1.92112879	          0.93419035	          0.98295972	          0.96612179	         -0.35552033	         57.30739165	         -0.89634907	          3.66037670	       -109.82735882	          7.10513927	          5.48933086	          9.13119005	          0.40217206	        -29.82567946	         13.08062010	          4.99581072	         -2.44250904	         -7.50089887	        -42.78665903	        -23.76276852	        -12.80111400	         95.39323027	        106.30519881	        -24.85864650	        -10.78144318	        -14.96010137	        120.78686931	        102.54340272	          0.00000000	          0.00000000	          0.00000000	          0.00000000	          0.00000000	          0.00000000	          0.00000000	          0.00000000	          1.00098759	          1.00356471	         -0.48354746	          1.00115470	          1.00450759	         -0.22921445	          0.84698576	          1.07562544	         -0.41442719	          0.84228808	          1.06937658	         -0.30006988	          0.94533511	          0.90170607	         -0.17613438	          0.98322307	          0.75992644	         -0.20131748	          1.11822299	          0.66732906	         -0.20139500	          0.92488228	          0.87394794	         -0.52707235	          0.81582591	          0.73895068	         -0.48146962	          0.83813317	          0.59760016	         -0.46781964	          1.09348934	          0.47634422	         -0.26946366	          1.01950047	          0.52693205	         -0.19467523	          0.90992492	          0.42468411	         -0.26610384	          0.79982293	          0.37323183	         -0.38426353	          0.66627160	          0.33355831	         -0.42973119	          0.64414822	          0.22029830	         -0.36113238	          0.73569084	          0.47413116	         -0.25155037	          0.83856114	          0.25479596	         -0.27748868	          0.80173563	          0.28506467	         -0.18176383	          0.45642334	          0.18039834	         -0.32827897	          0.66125144	          0.06304596	         -0.32027356	          0.59404797	          0.04282842	         -0.41020479	          0.98595765	          1.49536321	         -0.52157038	          0.98404091	          1.48881093	         -0.19488505	          1.04515669	          1.45343650	         -0.32142337	          0.92273628	          1.52181659	         -0.36457274	          0.85112261	          1.42788467	         -0.14236592	          0.87328955	          1.36817726	         -0.09533182	          0.77981052	          1.32562896	         -0.05957400	          0.72714112	          1.28651628	         -0.03110337	          0.72619753	          1.24865132	         -0.11304631	          0.89566454	          1.39054092	         -0.57928628	          0.92996105	          1.31295113	         -0.59655340	          0.86262144	          1.24247713	         -0.62008873	          0.84948424	          1.17772639	         -0.63867492	          0.82603818	          1.15962144	         -0.54554961	          0.78742789	          1.19471107	         -0.01272934	          0.91424998	          1.08172612	         -0.07691888	          0.86926040	          1.05479738	         -0.03370803	          0.92457198	          1.14014659	         -0.63175907	          1.08873261	          1.17567673	         -0.54202805	          1.09369084	          1.11219571	         -0.57467224	
1.02	        -15.15550845	          0.50053027	         -0.56686271	          0.98778717	          0.97208605	         -0.35408634	         58.97007660	          1.29162280	          2.76327628	       -104.75573239	          7.41751764	          0.15683941	          7.19070267	         -0.32540450	        -25.15410455	          6.49066934	          5.45154093	         -0.42067054	         -7.40480960	        -45.60389590	        -24.00602611	        -13.95010593	         97.14405576	        106.39978564	        -25.00859401	         -9.91907178	        -15.03888693	        124.17328851	        101.16730241	          0.00000000	          0.00000000	          0.00000000	          0.00000000	          0.00000000	          0.00000000	          0.00000000	          0.00000000	          1.00825712	          1.00679061	         -0.48492885	          1.00327930	          1.01346931	         -0.22827219	          0.85365365	          1.07912114	         -0.41831233	          0.84483197	          1.07583702	         -0.30344055	          0.94780200	          0.91210309	         -0.17277321	          0.99197705	          0.77063546	         -0.19975052	          1.12970845	          0.68378826	         -0.20128113	          0.92734283	          0.87553908	         -0.52610793	          0.80658705	          0.74993080	         -0.48214771	          0.81801166	          0.60773335	         -0.46858929	          1.12065976	          0.48442684	         -0.27160707	          1.04071582	          0.52532800	         -0.19702001	          0.94320349	          0.41018328	         -0.26857580	          0.76594107	          0.38419096	         -0.38791849	          0.63197876	          0.34788386	         -0.43362774	          0.60922019	          0.23299258	         -0.36647193	          0.76530060	          0.43770391	         -0.25472770	          0.89532581	          0.23351966	         -0.28207026	          0.85466886	          0.25782424	         -0.18656483	          0.42325721	          0.20075770	         -0.33531183	          0.61359197	          0.06233432	         -0.32133382	          0.54647168	          0.04647788	         -0.41184400	          0.98878317	          1.50239114	         -0.52023352	          0.97998368	          1.49515871	         -0.19474128	          1.04346226	          1.45981703	         -0.31951448	          0.92266263	          1.52740464	         -0.36465229	          0.84546337	          1.43885498	         -0.14575775	          0.86493020	          1.37759691	         -0.09798001	          0.76939527	          1.33792693	         -0.06497609	          0.71420705	          1.30055328	         -0.03841493	          0.71501133	          1.26280072	         -0.12066039	          0.90034477	          1.39695472	         -0.57996537	          0.93662845	          1.31970491	         -0.59619239	          0.87100882	          1.24821184	         -0.62091960	          0.85840187	          1.18303487	         -0.63893748	          0.82894236	          1.16743125	         -0.54304653	          0.77301370	          1.20875527	         -0.01837076	          0.90076028	          1.09530612	         -0.07906358	          0.85479454	          1.06849115	         -0.03654073	          0.93494417	          1.15070636	         -0.62953375	          1.09426876	          1.19897500	         -0.53797534	          1.10417549	          1.13493995	         -0.56820238	
1.03	        -15.06980132	         -0.85758372	         -1.94397827	          0.99252855	          0.97781864	         -0.35251104	         60.31298396	          3.26198353	          1.68999550	        -99.08788100	          7.58985655	         -4.64596819	          5.43528315	         -1.42957176	        -20.85754740	         -0.85878535	          5.95813442	          1.47848291	         -7.37841854	        -48.34440432	        -24.09691157	        -15.11964516	         98.79825855	        106.10262519	        -25.22586915	         -9.30273179	        -15.08565124	        127.49268940	        100.31985446	          0.00000000	          0.00000000	          0.00000000	          0.00000000	          0.00000000	          0.00000000	          0.00000000	          0.00000000	          1.01550232	          1.00984273	         -0.48586299	          1.00562760	          1.02200549	         -0.22662111	          0.86033235	          1.08243743	         -0.42161877	          0.84776541	          1.08217631	         -0.30650793	          0.95119401	          0.92205995	         -0.17004874	          0.99949194	          0.78085147	         -0.19793885	          1.13871874	          0.69811170	         -0.20107220	          0.92929025	          0.87804058	         -0.52576384	          0.79894004	          0.76233406	         -0.48234021	          0.79988655	          0.61987857	         -0.46932754	          1.14611704	          0.49160761	         -0.27295474	          1.06094722	          0.52230574	         -0.19923710	          0.97898635	          0.39538963	         -0.27144835	          0.73593845	          0.39772655	         -0.39228442	          0.60150680	          0.36441156	         -0.43780068	          0.57861032	          0.24761823	         -0.37264129	          0.79900414	          0.40006674	         -0.25931556	          0.95441433	          0.21461817	         -0.28712890	          0.90989528	          0.23227761	         -0.19135146	          0.39511768	          0.22342652	         -0.34352707	          0.56710855	          0.06311411	         -0.32305226	          0.50123600	          0.05270978	         -0.41480667	          0.99168983	          1.50913815	         -0.51882097	          0.97631286	          1.50095610	         -0.19495282	          1.04227871	          1.46557378	         -0.31780759	          0.92289157	          1.53240519	         -0.36497840	          0.84050237	          1.44902914	         -0.14964604	          0.85721056	          1.38679656	         -0.10092041	          0.75993591	          1.35012621	         -0.07076391	          0.70242296	          1.31417311	         -0.04618863	          0.70497473	          1.27669057	         -0.12868509	          0.90518719	          1.40344148	         -0.58091254	          0.94299081	          1.32657656	         -0.59619143	          0.87850094	          1.25455013	         -0.62218099	          0.86684533	          1.18859525	         -0.63986653	          0.83339035	          1.17456861	         -0.54242342	          0.75959231	          1.22218496	         -0.02441624	          0.88854597	          1.10860574	         -0.08150687	          0.84129733	          1.08167376	         -0.04007588	          0.94442630	          1.16123130	         -0.62791432	          1.09804604	          1.22140876	         -0.53426199	          1.11278241	          1.15721955	         -0.56253874	
